<svg width="83" height="80" viewBox="0 0 83 80" fill="none" xmlns="http://www.w3.org/2000/svg">
<path d="M39.9338 0.380951C39.6004 0.619046 35.1242 7.14286 29.9338 14.9048L20.5052 29L18.7909 27.2857C17.3147 25.8095 16.7433 25.5714 14.0766 25.381C8.17186 24.9048 4.88614 26.619 2.12424 31.6667C-0.351952 36.3333 -0.590047 38.381 1.029 41.6667C2.17186 44.0476 2.88614 44.7619 6.83852 47.4286C7.45757 47.8571 7.2671 48.381 5.31471 51.2857C4.07662 53.1429 3.17186 55.0476 3.2671 55.5238C3.45757 56.5714 38.2195 80 39.6004 80C40.3623 80 42.4576 77.2857 49.1719 67.2857C57.4576 54.8571 57.6957 54.5714 57.8385 56.3333C57.9814 57.7619 58.1719 58.0952 58.7909 57.9048C59.2195 57.8095 61.9814 57.5238 64.8385 57.381C73.1242 56.8571 76.8385 55.0476 79.9338 49.9524C82.1242 46.3333 82.9338 43.1429 82.2671 40.619C81.5528 38.0952 79.029 35.2381 75.9814 33.619C74.5528 32.8571 73.3147 32.1905 73.2195 32.0952C73.1242 32 73.9338 30.5714 75.029 28.9048C76.0766 27.2381 76.9814 25.4762 76.9814 24.9524C76.9814 24.3333 75.3623 23 71.8385 20.619C69.029 18.7619 60.9814 13.3333 53.8861 8.61905C46.8385 3.85714 40.9338 -1.49012e-06 40.7909 -1.49012e-06C40.648 -1.49012e-06 40.2671 0.190475 39.9338 0.380951ZM57.3623 13.619C66.2195 19.5714 73.6957 24.6667 73.9814 24.9524C74.4576 25.381 74.2195 26.0476 72.8385 28.0952C71.8861 29.5238 71.0766 30.7619 71.029 30.8571C70.9814 30.9048 68.6957 29.9048 66.029 28.5714C60.648 25.9524 59.8385 25.8095 58.6004 27C58.0766 27.5238 57.2195 27.7619 55.9814 27.6667C54.6004 27.5714 54.029 27.7619 53.5528 28.5238C53.2195 29.0952 52.4576 29.5238 51.8861 29.5238C51.2671 29.5238 50.3623 29.9524 49.8385 30.4762C48.8385 31.4762 48.5528 34 49.4099 34.5714C49.7909 34.7619 49.7909 35 49.4099 35.381C48.648 36.1429 48.7909 38.381 49.648 39.2381C50.029 39.6667 52.7433 41.2857 55.6004 42.9048C58.9338 44.7619 60.6957 46 60.4576 46.3333C58.9814 48.7619 39.6957 77.1429 39.41 77.3333C38.8385 77.7143 5.74329 55.2381 5.93376 54.619C6.029 54.3333 6.88614 53 7.83852 51.6667C8.74329 50.381 9.60043 49.1905 9.64805 49.0952C9.74329 49 12.2671 50.2381 15.3147 51.8571C21.2195 54.9524 22.7433 55.2857 23.7433 53.8571C24.2195 53.1905 24.6004 53.0476 25.0766 53.381C26.2671 54.0952 27.4576 53.8571 28.648 52.6667C29.2671 52.0476 29.8861 51.619 29.9814 51.7143C30.0766 51.8571 30.7433 51.7143 31.4576 51.4286C32.9814 50.8571 33.8861 48.8095 33.2671 47.381C32.9814 46.8095 33.029 46.0476 33.3147 45.381C34.3147 43.0952 33.4576 42.1429 26.7433 38.0952C23.2195 35.9524 20.3147 34 20.3147 33.7619C20.3147 33 40.6004 2.85714 41.1242 2.85714C41.2195 2.85714 48.5528 7.71428 57.3623 13.619ZM15.41 27.619C17.1719 28.2381 19.0766 30.7143 18.648 31.8095C18.41 32.4762 18.2195 32.4286 17.5528 31.2857C16.5528 29.6667 15.0766 29.5714 15.0766 31.0952C15.0766 32.8095 18.5052 35.7619 25.2195 39.7619C30.6957 43.0476 31.8385 44.0476 30.9814 44.8571C30.8385 45 28.3147 43.7619 25.3147 42.0476C22.3147 40.3333 19.648 39.0952 19.3623 39.2857C18.1242 40.0476 19.4576 41.2857 25.0766 44.4762C28.4576 46.4286 31.0766 48.2381 31.1719 48.7143C31.2671 49.1429 31.0766 49.5238 30.7909 49.5238C30.5052 49.5238 27.4576 47.9048 24.029 45.9048C18.2195 42.4762 17.7433 42.2857 17.1719 43.0952C16.41 44.1429 16.1242 43.8571 22.8385 47.8095C25.41 49.2857 27.3623 50.7143 27.2195 50.9524C26.7433 51.7619 26.029 51.5238 20.8861 48.5238C18.1719 46.9524 15.6004 45.7619 15.2671 45.9048C13.8385 46.4762 14.7909 47.6667 18.1719 49.5238C21.648 51.4286 22.8385 52.381 21.7433 52.381C20.8861 52.381 8.2671 45.8571 6.07662 44.2857C3.60043 42.4762 2.21948 40.2857 2.21948 38.0476C2.21948 36.0476 4.55281 31.1429 6.21948 29.5714C8.45757 27.4762 12.5052 26.619 15.41 27.619ZM68.2195 32.0952C80.2195 38 82.2671 40.9048 78.8861 47.4286C76.1242 52.7619 72.1242 54.9524 64.1719 55.4762C60.2195 55.7143 59.7433 55.6667 60.2671 55.0476C60.6004 54.6667 61.9338 54.0952 63.3147 53.8095C66.3623 53.1905 67.4576 52.1905 67.4576 50.1905C67.4576 47.7143 65.3623 45.8571 57.9814 41.7143C54.2671 39.6667 51.1242 37.7619 50.9814 37.5238C50.7909 37.2857 50.8861 36.8571 51.1719 36.5714C51.5052 36.2381 53.4576 37.0476 57.1719 39.0476C60.1719 40.6667 62.8861 41.8571 63.1719 41.6667C64.3623 40.9048 63.3147 39.9048 59.029 37.5714C51.648 33.619 50.648 32.9048 51.2671 32.1429C51.6957 31.6667 53.029 32.1905 58.2195 35.0952C62.7433 37.619 64.8385 38.5238 65.1719 38.1905C66.1242 37.2381 65.1719 36.4286 60.1242 33.619C57.3623 32.0952 55.0766 30.5714 55.0766 30.1905C55.0766 29.1429 55.6957 29.3333 61.1719 32.381C64.029 33.9524 66.6004 35.2381 66.8861 35.2381C67.3147 35.2381 68.1242 33.8095 67.8385 33.5238C67.7433 33.4762 66.029 32.5238 64.029 31.4286C61.9814 30.3333 60.2195 29.2381 60.029 29C59.4099 28 61.5052 28.7619 68.2195 32.0952ZM65.1242 49.381C65.8861 50.7619 65.4576 51.1429 62.648 51.8095C61.4099 52.1429 60.0766 52.5238 59.6004 52.6667C59.029 52.9048 59.3623 52.0952 60.7433 50.0952C62.5052 47.4762 62.8385 47.1905 63.648 47.7143C64.1242 48.0476 64.7909 48.7619 65.1242 49.381Z" fill="#FE5A34"/>
</svg>
