<svg width="93" height="80" viewBox="0 0 93 80" fill="none" xmlns="http://www.w3.org/2000/svg">
<path d="M82.8728 0.768967C82.2077 1.18465 79.381 3.80352 76.6375 6.58866L71.6491 11.6185H43.7146H15.78L15.6553 7.79417L15.5306 3.92823L13.7016 2.93056C8.33914 -0.0208511 1.64649 3.17999 0.357839 9.29066C0.0668538 10.7872 -0.057854 20.9716 0.0252845 41.59C0.149992 71.1042 0.149992 71.7277 1.02295 73.5568C2.10375 75.9678 4.18221 78.0462 6.59323 79.127C8.46385 80 8.83797 80 44.2134 80H79.963L80.0877 51.1094L80.1708 22.2603L86.4062 15.9833L92.6416 9.70636V7.71103C92.6416 5.79884 92.5169 5.591 90.1059 3.22155C86.6141 -0.187126 85.1591 -0.685959 82.8728 0.768967ZM88.6094 4.5102C90.9373 6.96278 91.2283 7.54475 90.7294 8.91654C90.5216 9.45694 89.7318 8.91654 86.9882 6.17297C85.076 4.30235 83.6211 2.59801 83.7458 2.39017C83.8705 2.22389 84.494 2.05761 85.1176 2.05761C85.9905 2.05761 86.8635 2.68115 88.6094 4.5102ZM12.9949 4.67648L14.0757 5.38316V35.5624V65.7417L13.1612 65.4508C12.6208 65.2845 10.7502 65.0351 9.00425 64.9519C6.13597 64.7441 5.59557 64.8688 3.89123 65.7833L2.02061 66.8641V38.1813C2.02061 7.37848 1.97904 7.91888 4.14064 5.92355C6.67637 3.59567 10.5423 3.05527 12.9949 4.67648ZM74.6837 13.988C67.0765 21.5952 65.9957 22.5097 65.4137 22.0109C64.7902 21.512 65.7047 20.5144 73.3951 12.7825C81.0854 5.09217 82.083 4.21922 82.665 4.75961C83.2054 5.34158 82.3324 6.33925 74.6837 13.988ZM77.6767 16.8147C72.9794 21.512 68.9887 25.2948 68.7809 25.2117C68.573 25.1286 68.1989 24.7544 67.9495 24.3803C67.5753 23.7983 68.864 22.3434 76.0139 15.1519L84.5356 6.63023L85.367 7.46162L86.1984 8.293L77.6767 16.8147ZM88.4016 10.4962C89.0667 11.286 71.6076 28.1631 70.9009 27.4564C70.5268 27.0823 72.4805 24.9207 78.9238 18.4775C83.6211 13.7801 87.5702 9.95577 87.6949 9.95577C87.8611 9.95577 88.1521 10.2052 88.4016 10.4962ZM66.0789 17.1888L62.6286 20.6806L61.4231 26.2094C60.7164 29.7427 60.4254 31.9459 60.6749 32.1953C61.049 32.5695 62.5039 32.32 69.155 30.8651C71.8986 30.2416 72.2727 30.0337 75.3072 27.0823L78.5081 23.9646V51.0262V78.1294H43.7146C9.29523 78.1294 8.92111 78.1294 7.13363 77.2564C5.0136 76.2172 2.9767 73.9309 2.4363 71.894C1.97904 70.2728 2.56101 69.1504 4.68104 67.5708C6.38538 66.2821 10.7917 66.3653 12.9949 67.6539C13.8679 68.1943 14.8655 68.5269 15.1565 68.4022C15.6553 68.2359 15.7385 63.497 15.7385 40.9249V13.697H42.6338H69.5707L66.0789 17.1888ZM69.3628 28.7035C69.3628 28.8698 68.7393 29.0776 68.0326 29.2023C66.8687 29.3686 66.4114 29.1608 65.1228 27.9137C63.5847 26.4588 63.2521 25.378 63.7925 23.8815C64.042 23.3411 64.5824 23.7152 66.7024 25.7937C68.1573 27.2486 69.3628 28.5372 69.3628 28.7035ZM63.9173 29.2023C64.4161 29.8259 64.1251 30.3247 63.2521 30.3247C62.9612 30.3247 62.7117 29.9506 62.7117 29.4933C62.7117 28.5372 63.2521 28.4125 63.9173 29.2023Z" fill="#FE5A34"/>
<path d="M35.0682 34.2323L26.7544 38.0567L26.6296 48.0333L26.5465 57.9684L35.0266 61.8343C39.6824 63.9128 43.7562 65.6587 44.1303 65.6587C44.4629 65.6587 48.5367 63.9128 53.1924 61.7927L61.6725 57.8852L61.7973 54.1856C61.8804 52.1487 61.7973 47.6592 61.6725 44.2089L61.3816 37.932L52.9014 34.1492C48.2457 32.0291 44.1719 30.3248 43.8809 30.3664C43.6315 30.3664 39.6408 32.1123 35.0682 34.2323ZM50.9892 35.3547C54.6058 36.9759 57.6403 38.4308 57.8066 38.5971C57.9729 38.7218 54.9799 40.3014 51.1139 42.0473L44.0887 45.2482L37.1882 42.0889C33.4054 40.343 30.2877 38.8049 30.2877 38.6802C30.2877 38.3892 43.1742 32.4864 43.9225 32.4448C44.255 32.4033 47.4143 33.7335 50.9892 35.3547ZM36.731 43.9595L42.9664 46.8278L43.0911 54.9754C43.1326 59.5064 43.0495 63.1645 42.8832 63.1645C42.6754 63.1645 39.3914 61.7096 35.4839 59.9221L28.4171 56.6797L28.2924 49.031C28.2508 44.8325 28.2924 41.1328 28.3756 40.8418C28.625 40.2183 28.5418 40.1767 36.731 43.9595ZM59.8019 48.4906V56.7213L52.943 59.839C49.1602 61.5433 45.7931 62.9983 45.4605 63.0814C44.5876 63.2892 44.546 47.7008 45.419 46.9941C46.0009 46.5368 58.929 40.3846 59.5109 40.343C59.6772 40.3014 59.8019 44.0011 59.8019 48.4906Z" fill="#FE5A34"/>
</svg>
