<svg width="146" height="28" viewBox="0 0 146 28" fill="none" xmlns="http://www.w3.org/2000/svg">
<path d="M34.3153 11.4687H32L36.0352 0H39.4916L43.4276 11.4687H41.1288L40.3185 9.07665H35.1587L34.3153 11.4687ZM37.7551 1.40901L35.8202 7.07782H39.657L37.7551 1.40901Z" fill="#253041"/>
<path d="M46.9497 11.4687H44.7998V0H46.9497V3.76829C47.4954 3.12932 48.3719 2.6378 49.5296 2.6378C51.448 2.6378 53.1844 3.93212 53.1844 6.11118V11.4687H51.0345V6.66823C51.0345 5.40667 50.1415 4.62025 49.0996 4.62025C47.7931 4.62025 46.9497 5.66881 46.9497 6.9959V11.4687Z" fill="#253041"/>
<path d="M57.1081 11.4687H54.9582V2.78525H57.1081V3.7519C57.6373 3.12932 58.3981 2.6378 59.4234 2.6378C60.4653 2.6378 61.5072 3.1457 62.119 4.11235C62.8136 3.17847 63.9382 2.6378 65.0132 2.6378C66.6669 2.6378 68.3207 3.8502 68.3207 6.11118V11.4687H66.1708V6.60269C66.1708 5.3739 65.625 4.57109 64.5832 4.57109C63.3594 4.57109 62.7971 5.47221 62.7144 6.53716V11.4687H60.5645V6.60269C60.5645 5.3739 60.0188 4.57109 58.9769 4.57109C57.6539 4.57109 57.1081 5.65243 57.1081 6.86483V11.4687Z" fill="#253041"/>
<path d="M73.9319 11.5998C71.5505 11.5998 69.5825 9.55179 69.5825 7.12698C69.5825 4.60386 71.5505 2.6378 73.9319 2.6378C75.0399 2.6378 75.9329 3.08016 76.5614 3.73552V2.78525H78.7113V11.4687H76.5614V10.5348C75.9329 11.1738 75.0399 11.5998 73.9319 11.5998ZM74.1469 9.66647C75.536 9.66647 76.6937 8.50322 76.6937 7.12698C76.6937 5.75073 75.5526 4.57109 74.1469 4.57109C72.6916 4.57109 71.6001 5.75073 71.6001 7.12698C71.6001 8.50322 72.6916 9.66647 74.1469 9.66647Z" fill="#253041"/>
<path d="M84.5587 11.5998C82.1772 11.5998 80.2092 9.55179 80.2092 7.12698C80.2092 4.60386 82.1772 2.6378 84.5587 2.6378C85.6667 2.6378 86.5597 3.08016 87.1882 3.73552V0H89.3381V11.4687H87.1882V10.5348C86.5597 11.1738 85.6832 11.5998 84.5587 11.5998ZM84.7737 9.66647C86.1628 9.66647 87.3205 8.50322 87.3205 7.12698C87.3205 5.75073 86.1794 4.57109 84.7737 4.57109C83.3183 4.57109 82.2268 5.75073 82.2268 7.12698C82.2268 8.50322 83.3183 9.66647 84.7737 9.66647Z" fill="#253041"/>
<path d="M34.613 27.8525H32.3804V16.3839H34.613V21.1188H40.1366V16.3839H42.3691V27.8525H40.1366V23.1012H34.613V27.8525Z" fill="#253041"/>
<path d="M47.774 28C45.8722 28 44.1192 26.7057 44.1192 24.5266V19.1691H46.2691V23.9696C46.2691 25.2311 47.1621 26.0176 48.204 26.0176C49.5105 26.0176 50.3704 24.969 50.3704 23.6419V19.1691H52.5203V27.8525H50.3704V26.8695C49.8081 27.4921 48.9482 28 47.774 28Z" fill="#253041"/>
<path d="M57.8667 27.9836C56.7256 27.9836 55.5183 27.6723 54.2945 26.9351V24.7888C54.9395 25.2967 56.5106 26.1322 57.8667 26.1322C58.5612 26.1322 59.2558 25.8865 59.2558 25.3458C59.2558 24.8052 58.5447 24.5266 57.1225 24.2317C55.0718 23.8057 54.0464 23.1012 54.0464 21.6758C54.0464 19.9883 55.5845 19.0217 57.6682 19.0217C58.9416 19.0217 60.1654 19.3657 61.0419 19.8736V21.8888C59.4047 21.0369 58.3297 20.8403 57.6682 20.8403C56.7752 20.8403 56.2625 21.2007 56.2625 21.6595C56.2625 22.3312 57.354 22.3967 58.6439 22.708C60.645 23.2159 61.4553 24.117 61.4553 25.3786C61.4553 27.3446 59.5204 27.9836 57.8667 27.9836Z" fill="#253041"/>
<path d="M66.2647 27.9836C65.1236 27.9836 63.9164 27.6723 62.6926 26.9351V24.7888C63.3375 25.2967 64.9086 26.1322 66.2647 26.1322C66.9593 26.1322 67.6539 25.8865 67.6539 25.3458C67.6539 24.8052 66.9428 24.5266 65.5205 24.2317C63.4698 23.8057 62.4445 23.1012 62.4445 21.6758C62.4445 19.9883 63.9825 19.0217 66.0663 19.0217C67.3397 19.0217 68.5635 19.3657 69.44 19.8736V21.8888C67.8027 21.0369 66.7278 20.8403 66.0663 20.8403C65.1732 20.8403 64.6606 21.2007 64.6606 21.6595C64.6606 22.3312 65.7521 22.3967 67.042 22.708C69.0431 23.2159 69.8534 24.117 69.8534 25.3786C69.8534 27.3446 67.9185 27.9836 66.2647 27.9836Z" fill="#253041"/>
<path d="M75.2601 27.9836C72.7133 27.9836 70.7453 25.9356 70.7453 23.5108C70.7453 20.9877 72.796 19.0217 75.2601 19.0217C77.443 19.0217 79.2787 20.5945 79.6756 22.6589C79.7914 23.1831 79.8245 23.7402 79.6922 24.2973H72.8786C73.1267 25.4605 74.0859 26.0995 75.2601 26.0995C76.087 26.0995 76.9469 25.7718 77.5092 25.1984L79.3945 25.7063C78.6834 27.1317 76.8808 27.9836 75.2601 27.9836ZM72.8786 22.6752H77.5919C77.3604 21.725 76.5004 20.9058 75.2435 20.9058C73.9867 20.9058 73.1102 21.725 72.8786 22.6752Z" fill="#253041"/>
<path d="M82.3429 18.3008C81.5987 18.3008 80.9868 17.7601 80.9868 17.0228C80.9868 16.2855 81.5987 15.7285 82.3429 15.7285C83.0871 15.7285 83.699 16.2855 83.699 17.0228C83.699 17.7601 83.0871 18.3008 82.3429 18.3008ZM83.4013 27.8525H81.2514V19.1691H83.4013V27.8525Z" fill="#253041"/>
<path d="M87.3392 27.8525H85.1893V19.1691H87.3392V20.1521C87.9015 19.5132 88.7614 19.0217 89.9356 19.0217C91.8375 19.0217 93.5904 20.316 93.5904 22.495V27.8525H91.4405V23.0521C91.4405 21.7905 90.5475 21.0041 89.5056 21.0041C88.1992 21.0041 87.3392 22.0527 87.3392 23.3798V27.8525Z" fill="#253041"/>
<path d="M102.056 27.8525H99.8232V16.3839H102.056V21.1188H107.579V16.3839H109.812V27.8525H107.579V23.1012H102.056V27.8525Z" fill="#253041"/>
<path d="M115.68 27.9836C113.298 27.9836 111.33 25.9356 111.33 23.5108C111.33 20.9877 113.298 19.0217 115.68 19.0217C116.788 19.0217 117.681 19.464 118.309 20.1194V19.1691H120.459V27.8525H118.309V26.9187C117.681 27.5576 116.788 27.9836 115.68 27.9836ZM115.895 26.0503C117.284 26.0503 118.442 24.8871 118.442 23.5108C118.442 22.1346 117.301 20.9549 115.895 20.9549C114.44 20.9549 113.348 22.1346 113.348 23.5108C113.348 24.8871 114.44 26.0503 115.895 26.0503Z" fill="#253041"/>
<path d="M127.051 27.9836C125.943 27.9836 125.05 27.5576 124.438 26.9187V27.8525H122.288V16.3839H124.438V20.1358C125.05 19.464 125.959 19.038 127.051 19.0217C129.515 18.9889 131.4 20.9877 131.4 23.5108C131.4 25.9356 129.598 27.9836 127.051 27.9836ZM126.852 26.0503C128.242 26.0503 129.399 24.8871 129.399 23.5108C129.399 22.1346 128.258 20.9549 126.852 20.9549C125.43 20.9549 124.289 22.1346 124.289 23.5108C124.289 24.8871 125.447 26.0503 126.852 26.0503Z" fill="#253041"/>
<path d="M133.959 18.3008C133.214 18.3008 132.603 17.7601 132.603 17.0228C132.603 16.2855 133.214 15.7285 133.959 15.7285C134.703 15.7285 135.315 16.2855 135.315 17.0228C135.315 17.7601 134.703 18.3008 133.959 18.3008ZM135.017 27.8525H132.867V19.1691H135.017V27.8525Z" fill="#253041"/>
<path d="M141.651 27.9836C140.543 27.9836 139.65 27.5576 139.038 26.9187V27.8525H136.888V16.3839H139.038V20.1358C139.65 19.464 140.559 19.038 141.651 19.0217C144.115 18.9889 146 20.9877 146 23.5108C146 25.9356 144.197 27.9836 141.651 27.9836ZM141.452 26.0503C142.841 26.0503 143.999 24.8871 143.999 23.5108C143.999 22.1346 142.858 20.9549 141.452 20.9549C140.03 20.9549 138.889 22.1346 138.889 23.5108C138.889 24.8871 140.046 26.0503 141.452 26.0503Z" fill="#253041"/>
<path fill-rule="evenodd" clip-rule="evenodd" d="M18.1875 0C8.14281 0 0 8.17567 0 18.2609V28H27.8875V0H18.1875ZM9.11447 9.51856C10.1052 8.94884 11.3228 8.55644 12.4214 8.45803C13.2643 8.38932 14.7829 8.57372 15.6258 8.86095C16.4691 9.14047 17.4276 9.65965 17.8407 10.0503L18.1086 10.3077L18.0652 10.978C18.0172 11.7177 17.7836 12.9482 17.5346 13.8218C17.336 14.5129 16.9092 15.6379 16.8403 15.6334C16.8173 15.6319 16.7472 15.5268 16.6786 15.3985C16.461 14.9587 15.7069 14.2517 15.0835 13.9014C13.6518 13.0882 12.1774 13.1698 11.0851 14.1198C10.3513 14.7605 9.94421 15.7011 9.94469 16.7612C9.94234 17.2717 9.99013 17.4837 10.2161 18.0324C10.7955 19.4166 12.0817 20.2203 13.4835 20.0721C16.2717 19.7746 18.4593 16.0488 19.0708 10.5331L19.1828 9.51905L23.7016 9.81446L23.5797 10.9826C23.2322 14.3258 22.1339 17.8598 20.7244 20.1431C19.1259 22.7313 16.9716 24.4011 14.6497 24.8606C13.8703 25.0186 12.2339 24.989 11.4158 24.7962C9.17213 24.2858 7.27286 22.854 6.13502 20.8297C3.91561 16.8622 5.26238 11.7505 9.11447 9.51856ZM23.9061 13.3158C23.3903 15.9128 22.7286 19.2436 22.0625 20.2502C21.444 21.1623 20.1006 22.6373 19.2888 23.2583C18.7862 23.6464 18.7572 23.695 18.7572 24.0928V24.5198L21.7822 24.5003L24.7976 24.4712L24.7589 19.3284C24.7499 18.0017 24.7408 15.8403 24.7327 13.9158L24.7327 13.913C24.7236 11.7285 24.7157 9.84992 24.7106 9.84476C24.7009 9.83506 24.6139 10.1165 24.5173 10.4755C24.3546 11.0579 24.1461 12.1075 23.9061 13.3158ZM21.5218 8.36957C22.7774 8.36957 23.7953 7.34761 23.7953 6.08696C23.7953 4.82631 22.7774 3.80435 21.5218 3.80435C20.2663 3.80435 19.2484 4.82631 19.2484 6.08696C19.2484 7.34761 20.2663 8.36957 21.5218 8.36957Z" fill="#FE5A34"/>
</svg>
