<svg width="16" height="16" viewBox="0 0 16 16" fill="none" xmlns="http://www.w3.org/2000/svg">
<path d="M8.01195 0H7.97553C3.56861 0 -0.00390625 3.57357 -0.00390625 7.98178V8.01822C-0.00390625 12.4264 3.56861 16 7.97553 16H8.01195C12.4189 16 15.9914 12.4264 15.9914 8.01822V7.98178C15.9914 3.57357 12.4189 0 8.01195 0Z" fill="#253041"/>
<path d="M3.81061 5.31831C3.5999 5.12267 3.49512 4.88052 3.49512 4.59239C3.49512 4.30426 3.60046 4.05145 3.81061 3.85526C4.02132 3.65962 4.29255 3.56152 4.62486 3.56152C4.95718 3.56152 5.21776 3.65962 5.42791 3.85526C5.63862 4.05089 5.74341 4.29698 5.74341 4.59239C5.74341 4.8878 5.63806 5.12267 5.42791 5.31831C5.2172 5.51394 4.94989 5.61204 4.62486 5.61204C4.29984 5.61204 4.02132 5.51394 3.81061 5.31831ZM5.56633 6.44055V12.4385H3.67164V6.44055H5.56633Z" fill="white"/>
<path d="M11.8735 7.03302C12.2865 7.48147 12.4928 8.09696 12.4928 8.88062V12.3325H10.6933V9.1239C10.6933 8.72871 10.5908 8.42152 10.3862 8.2029C10.1817 7.98429 9.90599 7.87442 9.56079 7.87442C9.21558 7.87442 8.93986 7.98373 8.73532 8.2029C8.53077 8.42152 8.42822 8.72871 8.42822 9.1239V12.3325H6.61816V6.42369H8.42822V7.20735C8.61147 6.94613 8.85861 6.73985 9.16907 6.58794C9.47953 6.43603 9.82865 6.36035 10.217 6.36035C10.9085 6.36035 11.4611 6.58457 11.8735 7.03246V7.03302Z" fill="white"/>
</svg>
