<svg width="81" height="80" viewBox="0 0 81 80" fill="none" xmlns="http://www.w3.org/2000/svg">
<path d="M0.893833 1.05006C0.696946 1.64072 0.50006 17.9166 0.50006 37.2771C0.50006 76.1293 0.434432 75.2761 4.63467 78.3607C6.47227 79.7389 7.32545 79.7389 39.8773 79.9358C76.8919 80.1327 76.695 80.1327 79.2545 75.9981C80.239 74.3573 80.5671 72.9135 80.4358 70.2227L80.239 66.6132L72.8885 66.4163L65.4725 66.2194V59.8534V53.4218L67.7695 52.5686C71.7729 51.1248 77.6138 46.7933 79.0576 44.1681C80.3702 41.8055 80.5015 40.5585 80.5671 30.9111C80.6327 25.0045 80.4358 20.0168 80.1077 19.6886C79.8452 19.4261 76.4325 18.2448 72.5604 17.0635L65.4725 14.8321V8.4661C65.4725 4.92215 65.2756 1.64072 65.0787 1.05006C64.7506 0.131255 61.2723 -2.50389e-06 32.9863 -2.50389e-06C4.7003 -2.50389e-06 1.22198 0.131255 0.893833 1.05006ZM61.5348 9.05676V14.8321L54.5125 16.9978C50.5748 18.1792 47.0308 19.4261 46.6371 19.8199C46.0464 20.3449 45.7839 23.2982 45.7839 30.3861C45.7839 39.0491 45.9808 40.6242 47.1621 43.1181C48.8028 46.5964 52.0186 49.2872 57.4658 51.9123L61.5348 53.8812V60.1159V66.285H38.3022C12.4445 66.285 14.2821 65.9569 14.2821 70.9446C14.2821 72.651 13.8227 73.9636 12.9695 74.8167C11.2632 76.5231 7.71922 76.5231 5.88162 74.8167L4.43778 73.4385V38.3928V3.28143H32.9863H61.5348V9.05676ZM71.1822 20.4105L77.2857 22.445V31.2393C77.2857 37.6709 77.0232 40.6242 76.3669 41.9368C75.1199 44.2338 71.7072 46.8589 67.0476 49.0247L63.3724 50.6654L58.5815 48.3027C55.9563 46.9902 52.8718 44.89 51.7561 43.5775L49.656 41.2805L49.8529 31.6987L50.0497 22.1169L55.6282 20.2793C58.7127 19.2948 62.0598 18.5073 63.1755 18.4417C64.2255 18.376 67.9008 19.2948 71.1822 20.4105ZM77.1544 71.3384C77.2857 72.2572 76.7606 73.4385 75.7106 74.4886L74.0699 76.1293H45.3901C18.4167 76.1293 16.776 76.0637 17.2354 74.948C17.4979 74.3573 17.826 72.8479 18.0229 71.6666L18.4167 69.5664L47.6871 69.6977L76.9575 69.8946L77.1544 71.3384Z" fill="#FE5A34"/>
<path d="M19.1387 14.1102C18.3512 16.1447 19.5981 16.4072 29.4424 16.4072H39.2211V14.7665V13.1258H29.3768C21.3701 13.1258 19.4013 13.3227 19.1387 14.1102Z" fill="#FE5A34"/>
<path d="M13.429 23.3633C12.6414 24.1509 12.9039 26.1197 13.8227 26.4479C15.2009 26.9729 32.3957 27.0385 35.0208 26.5135C36.924 26.1853 37.2522 25.8572 37.1209 24.6759C36.924 23.3633 36.5959 23.2977 25.3734 23.1008C19.073 23.0352 13.6915 23.1664 13.429 23.3633Z" fill="#FE5A34"/>
<path d="M13.7571 33.4049C13.2321 33.7331 12.9696 34.5206 13.1008 35.1769C13.2977 36.3582 14.0853 36.4238 25.1109 36.4238C36.1365 36.4238 36.9241 36.3582 37.1209 35.1769C37.2522 34.5206 36.9897 33.7331 36.4647 33.4049C35.349 32.683 14.8728 32.683 13.7571 33.4049Z" fill="#FE5A34"/>
<path d="M12.9695 44.956V46.5967L24.9795 46.4654C36.7927 46.2685 36.924 46.2685 37.1209 44.7591L37.3177 43.3152H25.1764H12.9695V44.956Z" fill="#FE5A34"/>
<path d="M12.9695 54.7997V56.4404L27.9328 56.3092C42.3055 56.1123 42.8306 56.0467 42.8306 54.7997C42.8306 53.5528 42.3055 53.4871 27.9328 53.2903L12.9695 53.159V54.7997Z" fill="#FE5A34"/>
<path d="M66.1944 31.239C65.4724 32.1578 64.1599 33.4703 63.2411 34.1922L61.6004 35.5048L59.6315 34.061C57.597 32.5515 56.2844 32.814 56.2844 34.7173C56.2844 36.0955 60.2221 40.0332 61.6004 40.0332C63.1754 40.0332 70.9853 31.764 70.5259 30.5827C69.8696 29.0076 67.7038 29.3357 66.1944 31.239Z" fill="#FE5A34"/>
</svg>
