<svg width="16" height="16" viewBox="0 0 16 16" fill="none" xmlns="http://www.w3.org/2000/svg">
<path d="M7.6394 0.00634738C5.13235 0.101673 2.76638 1.43432 1.34985 3.55054C0.526241 4.77832 0.0591479 6.2082 0.00767234 7.64952C-0.0438032 9.0813 0.230733 10.3663 0.850347 11.5864L1.02384 11.9315L0.96283 12.1489C0.93042 12.269 0.756928 12.8905 0.57581 13.5311C0.396599 14.1698 0.192603 14.8961 0.123969 15.1421C0.0553349 15.388 -0.00186018 15.6263 4.6327e-05 15.6683C0.00195283 15.8456 0.158286 16 0.337497 16C0.371814 16 0.991428 15.8532 1.71399 15.674C3.75014 15.1707 4.17719 15.0658 4.2077 15.0658C4.22486 15.0658 4.32971 15.1116 4.4441 15.1688C5.21814 15.5577 6.09704 15.8227 7.01979 15.9428C7.403 15.9943 8.19991 16.0133 8.57359 15.9828C9.56878 15.899 10.3771 15.6969 11.2522 15.3098C12.9528 14.5606 14.3808 13.1784 15.1987 11.4911C15.7687 10.3129 16.0242 9.12896 15.9937 7.80204C15.9727 6.95364 15.8526 6.25014 15.5895 5.46657C15.193 4.27501 14.5486 3.23978 13.6449 2.33991C12.9986 1.6936 12.3141 1.20554 11.5001 0.805172C10.2952 0.216063 9.03306 -0.0451282 7.6394 0.00634738ZM5.69096 4.20637C5.76531 4.23688 5.84157 4.32267 5.90258 4.44469C5.92736 4.49235 6.06844 4.82027 6.21525 5.17106C6.36205 5.52186 6.51457 5.88219 6.5546 5.97179C6.64993 6.19295 6.65183 6.28065 6.55842 6.46749C6.48978 6.61047 6.35823 6.78015 6.10276 7.06422C5.95405 7.22818 5.92355 7.29681 5.95215 7.40358C5.96359 7.44362 6.05701 7.60185 6.15996 7.75819C6.81007 8.7305 7.55933 9.36728 8.58503 9.82102C9.10741 10.0517 9.07309 10.0632 9.52112 9.52361C9.65076 9.36918 9.80138 9.18044 9.85667 9.10609C9.91958 9.01839 9.98249 8.95738 10.0263 8.9345C10.1503 8.87731 10.2818 8.92115 11.0139 9.26623C11.5992 9.54267 12.0796 9.7848 12.1197 9.82484C12.154 9.85915 12.1578 9.88585 12.1578 10.1146C12.1559 10.5512 12.0396 10.8982 11.8146 11.1365C11.5897 11.3729 11.2046 11.6131 10.8614 11.7275C10.5392 11.8343 9.97487 11.8534 9.58404 11.7695C9.21989 11.6913 8.33337 11.3672 7.88725 11.148C6.89777 10.6618 5.85682 9.77146 5.01415 8.68856C4.43076 7.94121 4.14669 7.46077 3.97129 6.93458C3.78255 6.37025 3.77492 5.8555 3.94651 5.35027C4.05899 5.01854 4.21342 4.77451 4.48795 4.48472C4.74914 4.21209 4.82731 4.18159 5.29059 4.17968C5.53462 4.17968 5.64711 4.18731 5.69096 4.20637Z" fill="#253041"/>
</svg>
