<svg width="252" height="64" viewBox="0 0 252 64" fill="none" xmlns="http://www.w3.org/2000/svg">
<g opacity="0.08">
<mask id="path-1-outside-1_1164_342" maskUnits="userSpaceOnUse" x="0" y="0" width="252" height="64" fill="black">
<rect fill="white" width="252" height="64"/>
<path d="M1 48.616V3.816H20.904C25.2133 3.816 28.7973 5.288 31.656 8.232C34.5147 11.1333 35.944 14.6533 35.944 18.792C35.944 23.016 34.5147 26.5573 31.656 29.416C28.84 32.2747 25.256 33.704 20.904 33.704H8.616V48.616H1ZM8.616 26.856H20.392C22.9093 26.856 24.8933 26.0667 26.344 24.488C27.8373 22.8667 28.584 20.904 28.584 18.6C28.584 16.296 27.8373 14.3973 26.344 12.904C24.8933 11.4107 22.9093 10.664 20.392 10.664H8.616V26.856Z"/>
<path d="M41.68 14.696H49.04V20.264C50.1067 18.1307 51.5573 16.616 53.392 15.72C55.2693 14.7813 57.1893 14.312 59.152 14.312C60.0907 14.312 61.072 14.3973 62.096 14.568V22.44C60.7733 22.0133 59.5147 21.8 58.32 21.8C56.4 21.8 54.3733 22.504 52.24 23.912C50.1067 25.32 49.04 27.816 49.04 31.4V48.616H41.68V14.696Z"/>
<path d="M69.4605 19.24C72.8738 15.8267 76.9912 14.12 81.8125 14.12C86.6338 14.12 90.7298 15.848 94.1005 19.304C97.5138 22.7173 99.2205 26.8133 99.2205 31.592C99.2205 36.4133 97.5138 40.552 94.1005 44.008C90.6872 47.4213 86.5912 49.128 81.8125 49.128C76.9912 49.128 72.8738 47.4213 69.4605 44.008C66.0472 40.552 64.3405 36.4133 64.3405 31.592C64.3405 26.7707 66.0472 22.6533 69.4605 19.24ZM71.2525 31.592C71.2525 34.536 72.2765 37.0747 74.3245 39.208C76.3725 41.3413 78.8685 42.408 81.8125 42.408C84.7138 42.408 87.1885 41.3413 89.2365 39.208C91.2845 37.0747 92.3085 34.536 92.3085 31.592C92.3085 28.648 91.2845 26.1307 89.2365 24.04C87.2312 21.9067 84.7565 20.84 81.8125 20.84C78.8685 20.84 76.3725 21.9067 74.3245 24.04C72.2765 26.1307 71.2525 28.648 71.2525 31.592Z"/>
<path d="M95.4745 61.672V55.144C97.0532 55.3573 98.4185 55.464 99.5705 55.464C101.234 55.464 102.579 55.144 103.603 54.504C104.627 53.9067 105.138 52.4347 105.138 50.088V14.696H112.499V49.704C112.499 54.824 111.304 58.1733 108.914 59.752C106.568 61.3733 103.837 62.184 100.723 62.184C99.1438 62.184 97.3945 62.0133 95.4745 61.672ZM103.987 5.736C103.987 4.41333 104.456 3.304 105.395 2.408C106.333 1.46933 107.464 1 108.786 1C110.109 1 111.219 1.46933 112.115 2.408C113.053 3.304 113.522 4.41333 113.522 5.736C113.522 7.05866 113.074 8.168 112.178 9.064C111.24 10.0027 110.109 10.472 108.786 10.472C107.464 10.472 106.333 10.024 105.395 9.128C104.456 8.18933 103.987 7.05866 103.987 5.736Z"/>
<path d="M123.34 19.24C126.753 15.8267 130.849 14.12 135.628 14.12C139.895 14.12 143.607 15.5067 146.764 18.28C149.964 21.0107 151.927 24.4453 152.652 28.584C152.908 29.608 153.036 30.632 153.036 31.656C153.036 32.552 152.929 33.448 152.716 34.344H125.452C125.879 36.8613 127.031 38.8667 128.908 40.36C130.828 41.8533 133.068 42.6 135.628 42.6C139.553 42.6 142.689 41.192 145.036 38.376L151.564 40.104C150.199 42.8347 148.001 45.032 144.972 46.696C141.985 48.3173 138.871 49.128 135.628 49.128C130.721 49.128 126.583 47.4213 123.212 44.008C119.884 40.5947 118.22 36.4773 118.22 31.656C118.22 26.792 119.927 22.6533 123.34 19.24ZM125.452 28.712H145.548C145.121 26.4507 143.991 24.552 142.156 23.016C140.364 21.4373 138.167 20.648 135.564 20.648C132.961 20.648 130.743 21.4373 128.908 23.016C127.073 24.552 125.921 26.4507 125.452 28.712Z"/>
<path d="M162.277 19.24C165.691 15.8267 169.787 14.12 174.565 14.12C178.149 14.12 181.392 15.144 184.293 17.192C187.195 19.1973 189.285 21.8427 190.565 25.128L183.781 26.984C182.928 25.1067 181.691 23.6133 180.069 22.504C178.448 21.352 176.613 20.776 174.565 20.776C171.621 20.776 169.126 21.8427 167.078 23.976C165.03 26.1093 164.005 28.6693 164.005 31.656C164.005 34.6 165.03 37.1387 167.078 39.272C169.126 41.4053 171.621 42.472 174.565 42.472C176.613 42.472 178.448 41.9173 180.069 40.808C181.733 39.656 182.971 38.1627 183.781 36.328L190.565 38.12C189.243 41.4053 187.152 44.072 184.293 46.12C181.435 48.1253 178.192 49.128 174.565 49.128C169.701 49.128 165.584 47.4213 162.214 44.008C158.843 40.552 157.158 36.4347 157.158 31.656C157.158 26.792 158.864 22.6533 162.277 19.24Z"/>
<path d="M193.332 21.096V14.696H199.732V6.568L206.964 4.456V14.696H217.396V21.096H206.964V37.608C206.964 39.6987 207.561 41 208.755 41.512C209.993 42.024 211.102 42.28 212.083 42.28C213.619 42.28 215.475 41.9387 217.651 41.256V48.36C215.347 49 213.235 49.32 211.315 49.32C208.798 49.32 206.238 48.5947 203.635 47.144C201.033 45.6507 199.732 42.4933 199.732 37.672V21.096H193.332Z"/>
<path d="M222.409 24.36C222.409 21.16 223.71 18.664 226.313 16.872C228.916 15.0373 232.244 14.12 236.297 14.12C241.118 14.12 245.492 15.2933 249.417 17.64V24.744C244.468 21.8853 240.094 20.456 236.297 20.456C234.42 20.456 232.884 20.8187 231.689 21.544C230.537 22.2267 229.961 23.144 229.961 24.296C229.961 24.68 230.025 25.0427 230.153 25.384C230.324 25.6827 230.58 25.96 230.921 26.216C231.305 26.472 231.668 26.6853 232.009 26.856C232.393 27.0267 232.926 27.2187 233.609 27.432C234.292 27.6027 234.868 27.752 235.337 27.88C235.806 27.9653 236.489 28.1147 237.385 28.328C238.324 28.5413 239.07 28.712 239.625 28.84C243.55 29.7787 246.388 31.1013 248.137 32.808C249.929 34.5147 250.846 36.6053 250.889 39.08C250.889 41.384 250.164 43.3253 248.713 44.904C247.305 46.4827 245.62 47.592 243.657 48.232C241.694 48.8293 239.54 49.128 237.193 49.128C232.372 49.128 227.678 47.656 223.113 44.712V37.224C224.649 38.5467 226.761 39.784 229.449 40.936C232.137 42.088 234.718 42.664 237.193 42.664C238.857 42.664 240.286 42.344 241.481 41.704C242.718 41.0213 243.337 40.1253 243.337 39.016C243.337 37.864 242.633 36.9253 241.225 36.2C239.817 35.432 237.62 34.7493 234.633 34.152C230.452 33.2987 227.358 32.1253 225.353 30.632C223.39 29.096 222.409 27.0053 222.409 24.36Z"/>
</mask>
<path d="M1 48.616V3.816H20.904C25.2133 3.816 28.7973 5.288 31.656 8.232C34.5147 11.1333 35.944 14.6533 35.944 18.792C35.944 23.016 34.5147 26.5573 31.656 29.416C28.84 32.2747 25.256 33.704 20.904 33.704H8.616V48.616H1ZM8.616 26.856H20.392C22.9093 26.856 24.8933 26.0667 26.344 24.488C27.8373 22.8667 28.584 20.904 28.584 18.6C28.584 16.296 27.8373 14.3973 26.344 12.904C24.8933 11.4107 22.9093 10.664 20.392 10.664H8.616V26.856Z" fill="#253041"/>
<path d="M41.68 14.696H49.04V20.264C50.1067 18.1307 51.5573 16.616 53.392 15.72C55.2693 14.7813 57.1893 14.312 59.152 14.312C60.0907 14.312 61.072 14.3973 62.096 14.568V22.44C60.7733 22.0133 59.5147 21.8 58.32 21.8C56.4 21.8 54.3733 22.504 52.24 23.912C50.1067 25.32 49.04 27.816 49.04 31.4V48.616H41.68V14.696Z" fill="#253041"/>
<path d="M69.4605 19.24C72.8738 15.8267 76.9912 14.12 81.8125 14.12C86.6338 14.12 90.7298 15.848 94.1005 19.304C97.5138 22.7173 99.2205 26.8133 99.2205 31.592C99.2205 36.4133 97.5138 40.552 94.1005 44.008C90.6872 47.4213 86.5912 49.128 81.8125 49.128C76.9912 49.128 72.8738 47.4213 69.4605 44.008C66.0472 40.552 64.3405 36.4133 64.3405 31.592C64.3405 26.7707 66.0472 22.6533 69.4605 19.24ZM71.2525 31.592C71.2525 34.536 72.2765 37.0747 74.3245 39.208C76.3725 41.3413 78.8685 42.408 81.8125 42.408C84.7138 42.408 87.1885 41.3413 89.2365 39.208C91.2845 37.0747 92.3085 34.536 92.3085 31.592C92.3085 28.648 91.2845 26.1307 89.2365 24.04C87.2312 21.9067 84.7565 20.84 81.8125 20.84C78.8685 20.84 76.3725 21.9067 74.3245 24.04C72.2765 26.1307 71.2525 28.648 71.2525 31.592Z" fill="#253041"/>
<path d="M95.4745 61.672V55.144C97.0532 55.3573 98.4185 55.464 99.5705 55.464C101.234 55.464 102.579 55.144 103.603 54.504C104.627 53.9067 105.138 52.4347 105.138 50.088V14.696H112.499V49.704C112.499 54.824 111.304 58.1733 108.914 59.752C106.568 61.3733 103.837 62.184 100.723 62.184C99.1438 62.184 97.3945 62.0133 95.4745 61.672ZM103.987 5.736C103.987 4.41333 104.456 3.304 105.395 2.408C106.333 1.46933 107.464 1 108.786 1C110.109 1 111.219 1.46933 112.115 2.408C113.053 3.304 113.522 4.41333 113.522 5.736C113.522 7.05866 113.074 8.168 112.178 9.064C111.24 10.0027 110.109 10.472 108.786 10.472C107.464 10.472 106.333 10.024 105.395 9.128C104.456 8.18933 103.987 7.05866 103.987 5.736Z" fill="#253041"/>
<path d="M123.34 19.24C126.753 15.8267 130.849 14.12 135.628 14.12C139.895 14.12 143.607 15.5067 146.764 18.28C149.964 21.0107 151.927 24.4453 152.652 28.584C152.908 29.608 153.036 30.632 153.036 31.656C153.036 32.552 152.929 33.448 152.716 34.344H125.452C125.879 36.8613 127.031 38.8667 128.908 40.36C130.828 41.8533 133.068 42.6 135.628 42.6C139.553 42.6 142.689 41.192 145.036 38.376L151.564 40.104C150.199 42.8347 148.001 45.032 144.972 46.696C141.985 48.3173 138.871 49.128 135.628 49.128C130.721 49.128 126.583 47.4213 123.212 44.008C119.884 40.5947 118.22 36.4773 118.22 31.656C118.22 26.792 119.927 22.6533 123.34 19.24ZM125.452 28.712H145.548C145.121 26.4507 143.991 24.552 142.156 23.016C140.364 21.4373 138.167 20.648 135.564 20.648C132.961 20.648 130.743 21.4373 128.908 23.016C127.073 24.552 125.921 26.4507 125.452 28.712Z" fill="#253041"/>
<path d="M162.277 19.24C165.691 15.8267 169.787 14.12 174.565 14.12C178.149 14.12 181.392 15.144 184.293 17.192C187.195 19.1973 189.285 21.8427 190.565 25.128L183.781 26.984C182.928 25.1067 181.691 23.6133 180.069 22.504C178.448 21.352 176.613 20.776 174.565 20.776C171.621 20.776 169.126 21.8427 167.078 23.976C165.03 26.1093 164.005 28.6693 164.005 31.656C164.005 34.6 165.03 37.1387 167.078 39.272C169.126 41.4053 171.621 42.472 174.565 42.472C176.613 42.472 178.448 41.9173 180.069 40.808C181.733 39.656 182.971 38.1627 183.781 36.328L190.565 38.12C189.243 41.4053 187.152 44.072 184.293 46.12C181.435 48.1253 178.192 49.128 174.565 49.128C169.701 49.128 165.584 47.4213 162.214 44.008C158.843 40.552 157.158 36.4347 157.158 31.656C157.158 26.792 158.864 22.6533 162.277 19.24Z" fill="#253041"/>
<path d="M193.332 21.096V14.696H199.732V6.568L206.964 4.456V14.696H217.396V21.096H206.964V37.608C206.964 39.6987 207.561 41 208.755 41.512C209.993 42.024 211.102 42.28 212.083 42.28C213.619 42.28 215.475 41.9387 217.651 41.256V48.36C215.347 49 213.235 49.32 211.315 49.32C208.798 49.32 206.238 48.5947 203.635 47.144C201.033 45.6507 199.732 42.4933 199.732 37.672V21.096H193.332Z" fill="#253041"/>
<path d="M222.409 24.36C222.409 21.16 223.71 18.664 226.313 16.872C228.916 15.0373 232.244 14.12 236.297 14.12C241.118 14.12 245.492 15.2933 249.417 17.64V24.744C244.468 21.8853 240.094 20.456 236.297 20.456C234.42 20.456 232.884 20.8187 231.689 21.544C230.537 22.2267 229.961 23.144 229.961 24.296C229.961 24.68 230.025 25.0427 230.153 25.384C230.324 25.6827 230.58 25.96 230.921 26.216C231.305 26.472 231.668 26.6853 232.009 26.856C232.393 27.0267 232.926 27.2187 233.609 27.432C234.292 27.6027 234.868 27.752 235.337 27.88C235.806 27.9653 236.489 28.1147 237.385 28.328C238.324 28.5413 239.07 28.712 239.625 28.84C243.55 29.7787 246.388 31.1013 248.137 32.808C249.929 34.5147 250.846 36.6053 250.889 39.08C250.889 41.384 250.164 43.3253 248.713 44.904C247.305 46.4827 245.62 47.592 243.657 48.232C241.694 48.8293 239.54 49.128 237.193 49.128C232.372 49.128 227.678 47.656 223.113 44.712V37.224C224.649 38.5467 226.761 39.784 229.449 40.936C232.137 42.088 234.718 42.664 237.193 42.664C238.857 42.664 240.286 42.344 241.481 41.704C242.718 41.0213 243.337 40.1253 243.337 39.016C243.337 37.864 242.633 36.9253 241.225 36.2C239.817 35.432 237.62 34.7493 234.633 34.152C230.452 33.2987 227.358 32.1253 225.353 30.632C223.39 29.096 222.409 27.0053 222.409 24.36Z" fill="#253041"/>
<path d="M1 48.616V3.816H20.904C25.2133 3.816 28.7973 5.288 31.656 8.232C34.5147 11.1333 35.944 14.6533 35.944 18.792C35.944 23.016 34.5147 26.5573 31.656 29.416C28.84 32.2747 25.256 33.704 20.904 33.704H8.616V48.616H1ZM8.616 26.856H20.392C22.9093 26.856 24.8933 26.0667 26.344 24.488C27.8373 22.8667 28.584 20.904 28.584 18.6C28.584 16.296 27.8373 14.3973 26.344 12.904C24.8933 11.4107 22.9093 10.664 20.392 10.664H8.616V26.856Z" stroke="#253041" stroke-width="2" mask="url(#path-1-outside-1_1164_342)"/>
<path d="M41.68 14.696H49.04V20.264C50.1067 18.1307 51.5573 16.616 53.392 15.72C55.2693 14.7813 57.1893 14.312 59.152 14.312C60.0907 14.312 61.072 14.3973 62.096 14.568V22.44C60.7733 22.0133 59.5147 21.8 58.32 21.8C56.4 21.8 54.3733 22.504 52.24 23.912C50.1067 25.32 49.04 27.816 49.04 31.4V48.616H41.68V14.696Z" stroke="#253041" stroke-width="2" mask="url(#path-1-outside-1_1164_342)"/>
<path d="M69.4605 19.24C72.8738 15.8267 76.9912 14.12 81.8125 14.12C86.6338 14.12 90.7298 15.848 94.1005 19.304C97.5138 22.7173 99.2205 26.8133 99.2205 31.592C99.2205 36.4133 97.5138 40.552 94.1005 44.008C90.6872 47.4213 86.5912 49.128 81.8125 49.128C76.9912 49.128 72.8738 47.4213 69.4605 44.008C66.0472 40.552 64.3405 36.4133 64.3405 31.592C64.3405 26.7707 66.0472 22.6533 69.4605 19.24ZM71.2525 31.592C71.2525 34.536 72.2765 37.0747 74.3245 39.208C76.3725 41.3413 78.8685 42.408 81.8125 42.408C84.7138 42.408 87.1885 41.3413 89.2365 39.208C91.2845 37.0747 92.3085 34.536 92.3085 31.592C92.3085 28.648 91.2845 26.1307 89.2365 24.04C87.2312 21.9067 84.7565 20.84 81.8125 20.84C78.8685 20.84 76.3725 21.9067 74.3245 24.04C72.2765 26.1307 71.2525 28.648 71.2525 31.592Z" stroke="#253041" stroke-width="2" mask="url(#path-1-outside-1_1164_342)"/>
<path d="M95.4745 61.672V55.144C97.0532 55.3573 98.4185 55.464 99.5705 55.464C101.234 55.464 102.579 55.144 103.603 54.504C104.627 53.9067 105.138 52.4347 105.138 50.088V14.696H112.499V49.704C112.499 54.824 111.304 58.1733 108.914 59.752C106.568 61.3733 103.837 62.184 100.723 62.184C99.1438 62.184 97.3945 62.0133 95.4745 61.672ZM103.987 5.736C103.987 4.41333 104.456 3.304 105.395 2.408C106.333 1.46933 107.464 1 108.786 1C110.109 1 111.219 1.46933 112.115 2.408C113.053 3.304 113.522 4.41333 113.522 5.736C113.522 7.05866 113.074 8.168 112.178 9.064C111.24 10.0027 110.109 10.472 108.786 10.472C107.464 10.472 106.333 10.024 105.395 9.128C104.456 8.18933 103.987 7.05866 103.987 5.736Z" stroke="#253041" stroke-width="2" mask="url(#path-1-outside-1_1164_342)"/>
<path d="M123.34 19.24C126.753 15.8267 130.849 14.12 135.628 14.12C139.895 14.12 143.607 15.5067 146.764 18.28C149.964 21.0107 151.927 24.4453 152.652 28.584C152.908 29.608 153.036 30.632 153.036 31.656C153.036 32.552 152.929 33.448 152.716 34.344H125.452C125.879 36.8613 127.031 38.8667 128.908 40.36C130.828 41.8533 133.068 42.6 135.628 42.6C139.553 42.6 142.689 41.192 145.036 38.376L151.564 40.104C150.199 42.8347 148.001 45.032 144.972 46.696C141.985 48.3173 138.871 49.128 135.628 49.128C130.721 49.128 126.583 47.4213 123.212 44.008C119.884 40.5947 118.22 36.4773 118.22 31.656C118.22 26.792 119.927 22.6533 123.34 19.24ZM125.452 28.712H145.548C145.121 26.4507 143.991 24.552 142.156 23.016C140.364 21.4373 138.167 20.648 135.564 20.648C132.961 20.648 130.743 21.4373 128.908 23.016C127.073 24.552 125.921 26.4507 125.452 28.712Z" stroke="#253041" stroke-width="2" mask="url(#path-1-outside-1_1164_342)"/>
<path d="M162.277 19.24C165.691 15.8267 169.787 14.12 174.565 14.12C178.149 14.12 181.392 15.144 184.293 17.192C187.195 19.1973 189.285 21.8427 190.565 25.128L183.781 26.984C182.928 25.1067 181.691 23.6133 180.069 22.504C178.448 21.352 176.613 20.776 174.565 20.776C171.621 20.776 169.126 21.8427 167.078 23.976C165.03 26.1093 164.005 28.6693 164.005 31.656C164.005 34.6 165.03 37.1387 167.078 39.272C169.126 41.4053 171.621 42.472 174.565 42.472C176.613 42.472 178.448 41.9173 180.069 40.808C181.733 39.656 182.971 38.1627 183.781 36.328L190.565 38.12C189.243 41.4053 187.152 44.072 184.293 46.12C181.435 48.1253 178.192 49.128 174.565 49.128C169.701 49.128 165.584 47.4213 162.214 44.008C158.843 40.552 157.158 36.4347 157.158 31.656C157.158 26.792 158.864 22.6533 162.277 19.24Z" stroke="#253041" stroke-width="2" mask="url(#path-1-outside-1_1164_342)"/>
<path d="M193.332 21.096V14.696H199.732V6.568L206.964 4.456V14.696H217.396V21.096H206.964V37.608C206.964 39.6987 207.561 41 208.755 41.512C209.993 42.024 211.102 42.28 212.083 42.28C213.619 42.28 215.475 41.9387 217.651 41.256V48.36C215.347 49 213.235 49.32 211.315 49.32C208.798 49.32 206.238 48.5947 203.635 47.144C201.033 45.6507 199.732 42.4933 199.732 37.672V21.096H193.332Z" stroke="#253041" stroke-width="2" mask="url(#path-1-outside-1_1164_342)"/>
<path d="M222.409 24.36C222.409 21.16 223.71 18.664 226.313 16.872C228.916 15.0373 232.244 14.12 236.297 14.12C241.118 14.12 245.492 15.2933 249.417 17.64V24.744C244.468 21.8853 240.094 20.456 236.297 20.456C234.42 20.456 232.884 20.8187 231.689 21.544C230.537 22.2267 229.961 23.144 229.961 24.296C229.961 24.68 230.025 25.0427 230.153 25.384C230.324 25.6827 230.58 25.96 230.921 26.216C231.305 26.472 231.668 26.6853 232.009 26.856C232.393 27.0267 232.926 27.2187 233.609 27.432C234.292 27.6027 234.868 27.752 235.337 27.88C235.806 27.9653 236.489 28.1147 237.385 28.328C238.324 28.5413 239.07 28.712 239.625 28.84C243.55 29.7787 246.388 31.1013 248.137 32.808C249.929 34.5147 250.846 36.6053 250.889 39.08C250.889 41.384 250.164 43.3253 248.713 44.904C247.305 46.4827 245.62 47.592 243.657 48.232C241.694 48.8293 239.54 49.128 237.193 49.128C232.372 49.128 227.678 47.656 223.113 44.712V37.224C224.649 38.5467 226.761 39.784 229.449 40.936C232.137 42.088 234.718 42.664 237.193 42.664C238.857 42.664 240.286 42.344 241.481 41.704C242.718 41.0213 243.337 40.1253 243.337 39.016C243.337 37.864 242.633 36.9253 241.225 36.2C239.817 35.432 237.62 34.7493 234.633 34.152C230.452 33.2987 227.358 32.1253 225.353 30.632C223.39 29.096 222.409 27.0053 222.409 24.36Z" stroke="#253041" stroke-width="2" mask="url(#path-1-outside-1_1164_342)"/>
</g>
</svg>
