<svg width="81" height="80" viewBox="0 0 81 80" fill="none" xmlns="http://www.w3.org/2000/svg">
<path d="M37.4375 0.796883C37.2812 1.23438 37.0625 1.62501 36.9062 1.67188C36.7656 1.71876 36.2656 1.93751 35.7812 2.14063L34.9062 2.53126L34.125 2.12501L33.3437 1.73438L31.75 3.34376L30.1406 4.95313L30.5312 5.71876L30.9062 6.48438L30.4062 7.64063C29.9375 8.76563 29.8906 8.81251 29.1406 9.06251C28.4531 9.29688 28.375 9.37501 28.3281 9.81251L28.2813 10.3125H20.5C13.2656 10.3125 12.6406 10.3281 11.5156 10.625C7.90626 11.5469 4.95313 14.5781 4.06251 18.2813C3.78126 19.5 3.81251 22.0469 4.14063 23.2813C5.04688 26.6563 7.71876 29.4688 11.0625 30.5469C11.5156 30.6875 12.5313 30.8906 13.3281 30.9844L14.7813 31.1719L16.3438 33.5C17.2188 34.7813 17.9844 35.8281 18.0625 35.8281C18.1406 35.8281 18.9063 34.7813 19.7813 33.5L21.3438 31.1719L28.9063 31.125C35.3594 31.0938 36.5156 31.125 36.7187 31.3125C36.8594 31.4375 37.6406 32.5313 38.4531 33.7344C39.2656 34.9375 39.9687 35.9219 40.0156 35.9219C40.0625 35.9219 40.7656 34.9375 41.5781 33.7344C42.3906 32.5313 43.1719 31.4375 43.3125 31.3125C43.5156 31.125 44.6719 31.0938 51.125 31.125L58.6875 31.1719L60.25 33.5C61.125 34.7813 61.8906 35.8281 61.9687 35.8281C62.0469 35.8281 62.8125 34.7813 63.6875 33.5L65.25 31.1719L66.7031 30.9844C67.5 30.8906 68.5156 30.6875 68.9687 30.5469C72.3125 29.4688 74.9844 26.6563 75.8906 23.2813C76.2187 22.0469 76.25 19.5 75.9687 18.2813C75.0781 14.5781 72.125 11.5469 68.5156 10.625C67.3906 10.3281 66.7656 10.3125 59.5312 10.3125H51.75L51.7031 9.81251C51.6562 9.37501 51.5781 9.29688 50.8906 9.06251C50.1406 8.81251 50.0937 8.78126 49.625 7.64063L49.125 6.48438L49.5156 5.71876L49.8906 4.95313L48.2812 3.34376L46.6875 1.73438L45.9062 2.12501L45.125 2.53126L44.25 2.14063C43.7656 1.93751 43.2656 1.71876 43.125 1.67188C42.9687 1.62501 42.75 1.23438 42.5937 0.796883L42.3281 8.56444e-06H40.0156H37.7031L37.4375 0.796883ZM40.5 3.28126C40.6719 3.82813 40.7656 3.92188 41.3281 4.07813C41.6875 4.15626 42.1094 4.28126 42.2812 4.32813C42.4531 4.37501 43.125 4.68751 43.75 5.03126L44.9219 5.64063L45.5156 5.37501C45.9844 5.17188 46.1406 5.15626 46.3281 5.31251C46.5469 5.46876 46.5312 5.57813 46.2656 6.09376L45.9531 6.70313L46.5625 7.76563C46.8906 8.34376 47.2812 9.29688 47.4375 9.89063C47.7031 10.8906 47.75 10.9531 48.3281 11.125C49.1094 11.3594 49.1094 11.8438 48.3125 12.1094C47.8125 12.2656 47.7344 12.3906 47.4375 13.3906C47.25 14 46.8437 14.9688 46.5156 15.5313L45.9531 16.5781L46.2656 17.1719C46.5156 17.6875 46.5312 17.8125 46.3437 17.9688C46.1875 18.1094 46 18.0781 45.5312 17.8281L44.9219 17.5313L44.0156 18.0781C43.5156 18.3906 42.5625 18.7969 41.9219 18.9844C40.7656 19.3125 40.7344 19.3438 40.5156 19.9688C40.375 20.4219 40.2187 20.625 40.0156 20.625C39.8125 20.625 39.6562 20.4219 39.5156 19.9688C39.2969 19.3438 39.2656 19.3125 38.125 18.9844C37.5 18.7969 36.5469 18.3906 36.0312 18.0938L35.0937 17.5313L34.5 17.8438C34.0312 18.0781 33.8437 18.1094 33.6875 17.9688C33.5 17.8125 33.5156 17.6875 33.7656 17.1719L34.0781 16.5781L33.5156 15.5313C33.1875 14.9688 32.7812 14 32.5937 13.3906C32.2969 12.3906 32.2187 12.2656 31.7187 12.1094C30.9219 11.8438 30.9219 11.3594 31.7031 11.125C32.2812 10.9531 32.3281 10.8906 32.5937 9.89063C32.75 9.29688 33.1406 8.34376 33.4687 7.76563L34.0781 6.70313L33.7656 6.09376C33.5 5.57813 33.4844 5.46876 33.7031 5.31251C33.8906 5.15626 34.0469 5.17188 34.5156 5.37501L35.1094 5.64063L36.2812 5.01563C36.9062 4.68751 37.75 4.31251 38.1406 4.21876C38.5312 4.12501 38.9531 4.01563 39.0937 3.96876C39.2344 3.93751 39.4219 3.62501 39.5312 3.28126C39.7812 2.42188 40.25 2.42188 40.5 3.28126ZM28.2969 13.4219C28.2969 13.8438 28.375 13.9063 29.1563 14.1563C29.9531 14.4063 30.0312 14.4688 30.25 15.1406C30.3906 15.5313 30.5937 16.0313 30.7031 16.2344C30.8906 16.5781 30.875 16.7188 30.5156 17.4531L30.1094 18.2813L31.6562 19.8438C32.5156 20.7031 33.2969 21.4063 33.4062 21.4063C33.5156 21.4063 33.9219 21.25 34.2969 21.0625L35 20.7344L35.9219 21.1406C36.4375 21.375 36.9219 21.5625 37 21.5625C37.0781 21.5625 37.2656 21.9531 37.4219 22.4219L37.6875 23.2813H40.0156H42.3437L42.6094 22.4219C42.7656 21.9531 42.9531 21.5625 43.0312 21.5625C43.1094 21.5625 43.5937 21.375 44.1094 21.1406L45.0312 20.7344L45.7344 21.0625C46.1094 21.25 46.5156 21.4063 46.625 21.4063C46.7344 21.4063 47.5156 20.7031 48.375 19.8438L49.9219 18.2813L49.5156 17.4531C49.1562 16.7188 49.1406 16.5781 49.3281 16.2344C49.4375 16.0313 49.6406 15.5313 49.7812 15.1406C50 14.4688 50.0781 14.4063 50.875 14.1563C51.6562 13.9063 51.7344 13.8438 51.7344 13.4219V12.9688H59.1094C65.3594 12.9688 66.6406 13 67.5 13.2188C71.7812 14.2656 74.3906 18.6563 73.1406 22.7031C72.7031 24.0938 72.1406 25.0625 71.1562 26.0313C69.8281 27.3594 68.25 28.0625 66.0625 28.2969C65.2812 28.375 64.4375 28.5625 64.1094 28.7344C63.5312 29.0313 62.6875 29.8594 62.1875 30.6094L61.9531 30.9844L61.375 30.1875C60.7031 29.2344 59.8906 28.6719 58.9219 28.4531C57.9844 28.2344 43.9219 28.2344 42.9844 28.4531C42.0469 28.6563 41.3125 29.2031 40.6406 30.1406C40.3437 30.5781 40.0625 30.9219 40.0156 30.9219C39.9687 30.9219 39.6875 30.5781 39.3906 30.1406C38.7187 29.2031 37.9844 28.6563 37.0469 28.4531C36.1094 28.2344 22.0469 28.2344 21.1094 28.4531C20.1406 28.6719 19.3281 29.2344 18.6563 30.1875L18.0781 30.9844L17.8438 30.6094C17.3438 29.8594 16.5 29.0313 15.9219 28.7344C15.5938 28.5625 14.75 28.375 13.9688 28.2969C11.7813 28.0625 10.2031 27.3594 8.87501 26.0313C4.67188 21.8281 6.57813 14.8281 12.3594 13.2656C13.2656 13.0156 14.2031 12.9844 20.8438 12.9844L28.2969 12.9688V13.4219Z" fill="#FE5A34"/>
<path d="M38.2345 6.71863C37.172 7.14051 36.3907 7.71863 35.8126 8.51551C35.1095 9.48426 34.8439 10.3749 34.8439 11.6874C34.8439 16.2811 40.3751 18.5311 43.7189 15.2811C45.4845 13.5624 45.7032 10.5936 44.2189 8.51551C42.922 6.71863 40.2814 5.92176 38.2345 6.71863ZM41.3907 9.57801C42.0939 10.0624 42.5782 11.0936 42.4689 11.9061C42.3126 13.1093 41.2345 14.0624 40.0626 14.0624C37.797 14.0624 36.7189 11.4374 38.3282 9.85926C39.2032 8.99988 40.3595 8.89051 41.3907 9.57801Z" fill="#FE5A34"/>
<path d="M11.578 20.625V22.0312H12.9061H14.2343V20.625V19.2188H12.9061H11.578V20.625Z" fill="#FE5A34"/>
<path d="M16.7343 20.625V22.0312H18.0624H19.3905V20.625V19.2188H18.0624H16.7343V20.625Z" fill="#FE5A34"/>
<path d="M21.8905 20.625V22.0312H23.2186H24.5468V20.625V19.2188H23.2186H21.8905V20.625Z" fill="#FE5A34"/>
<path d="M55.4844 20.625V22.0312H56.8125H58.1406V20.625V19.2188H56.8125H55.4844V20.625Z" fill="#FE5A34"/>
<path d="M60.6406 20.625V22.0312H61.9687H63.2969V20.625V19.2188H61.9687H60.6406V20.625Z" fill="#FE5A34"/>
<path d="M65.7969 20.625V22.0312H67.125H68.4531V20.625V19.2188H67.125H65.7969V20.625Z" fill="#FE5A34"/>
<path d="M16.1875 37.5313C15.7656 37.6094 14.8125 37.9531 14.0781 38.3125C11.8125 39.3906 10.0469 41.4844 9.28125 43.9844C8.875 45.3281 8.875 51.1563 9.28125 52.6406C9.70312 54.1719 10.4531 55.4375 11.6875 56.7188C12.8281 57.875 12.8281 57.875 12.8281 58.75V59.625L8.5 60.9219C6.10937 61.6406 3.75 62.4375 3.25 62.7031C2.17187 63.2656 1.125 64.375 0.53125 65.5938L0.09375 66.4844L0.046875 73.2344L0 80H40.0156H80.0312L79.9844 73.2344L79.9375 66.4844L79.5 65.5938C78.9062 64.375 77.8594 63.2656 76.7812 62.7031C76.2812 62.4375 73.9219 61.6406 71.5469 60.9219L67.2031 59.625V58.75C67.2031 57.875 67.2031 57.875 68.3437 56.7188C69.5781 55.4375 70.3281 54.1719 70.75 52.6406C71.1562 51.1563 71.1562 45.3281 70.75 43.9844C70.2812 42.4688 69.5469 41.25 68.375 40.0625C65.6094 37.25 61.5 36.5625 57.8906 38.3125C56.4844 38.9844 54.625 40.7969 53.9687 42.1094C52.9531 44.125 52.9062 44.4375 52.9062 48.3594C52.9062 51.75 52.9219 52.0156 53.2812 53.1094C53.75 54.5469 54.9219 56.3281 55.9531 57.1875C56.7187 57.8281 56.7344 57.8594 56.7344 58.7344V59.625L53.9687 60.4375C52.4375 60.8906 51.0781 61.2656 50.9531 61.25C50.8281 61.25 49.5 60.8906 48.0312 60.4531L45.3281 59.6406V58.7188C45.3281 57.7969 45.3437 57.7813 46.125 57.0781C47.1094 56.1875 47.9687 54.9375 48.5469 53.5156C48.9844 52.4375 48.9844 52.3594 49.0469 48.9063C49.0937 46.0781 49.0625 45.1875 48.8594 44.3125C48.1094 41.0938 45.5312 38.4844 42.2812 37.6563C37.3594 36.3906 32.3125 39.4219 31.1719 44.3125C30.9687 45.1875 30.9375 46.0781 30.9844 48.9063C31.0469 52.3594 31.0469 52.4375 31.4844 53.5156C32.0625 54.9375 32.9219 56.1875 33.9062 57.0781C34.6875 57.7813 34.7031 57.7969 34.7031 58.7188V59.6406L32.0156 60.4531C30.5312 60.8906 29.2031 61.25 29.0781 61.25C28.9531 61.2656 27.5937 60.8906 26.0781 60.4375L23.2969 59.625V58.7344C23.2969 57.8594 23.3125 57.8281 24.0781 57.1875C25.1094 56.3281 26.2812 54.5469 26.75 53.1094C27.1094 52.0156 27.125 51.75 27.125 48.3594C27.125 44.4375 27.0781 44.125 26.0625 42.1094C25.4062 40.7969 23.5469 38.9844 22.1406 38.3125C20.3281 37.4219 18.1875 37.1563 16.1875 37.5313ZM20.7187 40.7031C22.0156 41.3125 23.4687 42.8125 23.9062 43.9688C24.0937 44.4531 24.2344 44.9219 24.2344 45C24.2344 45.25 22.9687 45 22.2812 44.6094C21.9375 44.4063 21.5156 44.1094 21.3594 43.9219C20.9687 43.5 20.7969 43.5156 19.8437 44C18.4844 44.6875 16.875 45 14.2656 45.1094L11.875 45.2031L11.9844 44.75C12.2656 43.5469 13.3594 42.0156 14.4375 41.2813C15.7031 40.4063 16.6562 40.1563 18.2969 40.2031C19.5469 40.25 19.9375 40.3281 20.7187 40.7031ZM42.5625 40.6563C44.125 41.3906 45.6719 43.1406 46.125 44.7188L46.25 45.2031L43.7969 45.1094C41.1719 45 39.8906 44.75 38.2344 44C37.7344 43.7813 37.2344 43.5938 37.1406 43.5938C37.0312 43.5938 36.75 43.8125 36.4844 44.0781C35.9687 44.6406 35.3906 44.9219 34.4375 45.0781L33.7812 45.1875L33.9062 44.7344C34.4531 42.8438 36.25 41 38.1875 40.375C39.2812 40.0156 41.4687 40.1563 42.5625 40.6563ZM64.0312 40.4844C64.5312 40.6719 65.2344 41.0313 65.5937 41.2813C66.6719 42.0156 67.7656 43.5469 68.0469 44.75L68.1562 45.2031L65.7656 45.1094C63.1562 45 61.5469 44.6875 60.1875 44C59.2344 43.5156 59.0625 43.5 58.6719 43.9219C58.2187 44.4219 57.2031 44.9531 56.4687 45.0625C55.6875 45.1719 55.6875 45.1563 56.1094 44.0313C56.6719 42.5156 58.2344 41.0625 59.9062 40.4531C61.0625 40.0469 62.8594 40.0625 64.0312 40.4844ZM23.2969 47.7656L24.4219 47.8594L24.3594 49.9063C24.3125 51.8438 24.2812 52.0156 23.8125 52.9688C23.2656 54.0781 22.1562 55.2969 21.2344 55.8281L20.6406 56.1563V58V59.8281L19.4375 60.6406C18.7812 61.0938 18.1562 61.4531 18.0625 61.4531C17.9844 61.4531 17.3906 61.125 16.7656 60.7031L15.6406 59.9531V58.1094V56.2813L15.0625 55.9063C13.5937 55.0156 12.5781 53.7656 12.0625 52.2188C11.8125 51.4844 11.7344 50.8594 11.7344 49.5313V47.8125H14.125C16.5312 47.8125 18.6094 47.5156 19.8594 47C20.3594 46.7969 20.4531 46.7969 21.2969 47.2188C21.9062 47.5313 22.5312 47.7031 23.2969 47.7656ZM62.3437 47.5625C63.1562 47.7188 64.5 47.8125 65.9687 47.8125H68.2969V49.5313C68.2969 50.8594 68.2187 51.4844 67.9687 52.2188C67.4531 53.7656 66.4375 55.0156 64.9844 55.9063L64.3906 56.2813V58.1094V59.9531L63.2656 60.7031C62.6406 61.125 62.0469 61.4531 61.9687 61.4531C61.875 61.4531 61.25 61.0938 60.5937 60.6406L59.3906 59.8281V58V56.1563L58.8125 55.8281C57.875 55.2969 56.7656 54.0781 56.2187 52.9688C55.75 52.0156 55.7187 51.8438 55.6719 49.9063L55.6094 47.8594L56.7187 47.7656C57.4844 47.7031 58.1094 47.5313 58.7344 47.2344L59.625 46.7813L60.3437 47.0469C60.7344 47.2031 61.6406 47.4375 62.3437 47.5625ZM39.1875 47.2813C40.4062 47.6563 40.9062 47.7031 43.5156 47.7813L46.4687 47.8438L46.3906 49.75C46.2656 52.6719 45.4687 54.2813 43.5 55.5469L42.5312 56.1719L42.5156 58.0469V59.9219L41.2656 60.75L40.0156 61.5625L38.7656 60.75L37.5156 59.9219V58.0469L37.5 56.1719L36.5312 55.5469C34.5625 54.2813 33.7656 52.6719 33.6406 49.75L33.5625 47.8594L34.6562 47.7813C35.3594 47.7344 36.0312 47.5625 36.5937 47.2969C37.0625 47.0781 37.5312 46.8906 37.625 46.8906C37.7344 46.875 38.4375 47.0625 39.1875 47.2813ZM16.0781 63.5781C17.125 64.2656 18.0156 64.8438 18.0625 64.8438C18.1094 64.8438 19.0469 64.2344 20.1562 63.5L22.1719 62.1563L23.4531 62.5313L24.7344 62.9063L24.1719 63.3906C23.25 64.2188 22.5469 65.2813 22.2031 66.3438C21.9219 67.2969 21.8906 67.7969 21.8906 72.3594V77.3438H12.2656H2.65625L2.70312 72.2969L2.75 67.2656L3.1875 66.5313C3.9375 65.25 4.32812 65.0625 9.21875 63.5625C11.6719 62.8125 13.7969 62.2188 13.9375 62.25C14.0625 62.2813 15.0312 62.875 16.0781 63.5781ZM37.9844 63.5469L40.0156 64.8906L42.0781 63.5313L44.125 62.1563L48.4375 63.4375C53.1406 64.8438 53.5937 65.0313 54.3437 65.8125C55.375 66.875 55.4062 67.0625 55.4531 72.4531L55.5 77.3438H40.0156H24.5312L24.5781 72.4531C24.625 68.1563 24.6562 67.5 24.9062 66.9531C25.2344 66.2188 26 65.3906 26.6562 65.0469C27.0937 64.8125 35.3437 62.2344 35.7656 62.2031C35.8594 62.1875 36.875 62.7969 37.9844 63.5469ZM59.9844 63.5781C61.0312 64.2656 61.9219 64.8438 61.9687 64.8438C62.0156 64.8438 62.9531 64.2344 64.0625 63.5L66.0781 62.1563L70.6406 63.5313C75.6406 65.0313 76.0937 65.25 76.8437 66.5156L77.2812 67.2656L77.3281 72.2969L77.375 77.3438H67.7656H58.1406V72.3594C58.1406 67.7969 58.1094 67.2969 57.8281 66.3438C57.4844 65.2813 56.7812 64.2188 55.8594 63.3906L55.2969 62.9063L56.4531 62.5625C57.0781 62.3594 57.7031 62.2188 57.8437 62.25C57.9687 62.2813 58.9375 62.875 59.9844 63.5781Z" fill="#FE5A34"/>
</svg>
